<?xml version="1.0" standalone="no"?>
<!DOCTYPE svg PUBLIC "-//W3C//DTD SVG 20010904//EN"
 "http://www.w3.org/TR/2001/REC-SVG-20010904/DTD/svg10.dtd">
<svg version="1.0" xmlns="http://www.w3.org/2000/svg"
 width="2367.000000pt" height="1395.000000pt" viewBox="0 0 2367.000000 1395.000000"
 preserveAspectRatio="xMidYMid meet">
<metadata>
Created by potrace 1.10, written by Peter Selinger 2001-2011
</metadata>
<g transform="translate(0.000000,1395.000000) scale(0.100000,-0.100000)"
fill="#000000" stroke="none">
<path d="M8165 12934 c-242 -30 -428 -71 -642 -141 -102 -33 -126 -42 -193
-71 -19 -8 -48 -20 -65 -27 -247 -102 -618 -339 -816 -521 -355 -327 -598
-666 -769 -1076 -28 -67 -58 -138 -66 -156 -8 -18 -14 -39 -14 -47 0 -8 -6
-29 -14 -47 -8 -18 -22 -62 -31 -98 -10 -36 -23 -87 -31 -115 -14 -55 -41
-202 -50 -278 -3 -27 -9 -46 -12 -42 -4 4 -9 489 -12 1078 l-5 1072 -105 3
c-131 4 -400 -34 -525 -73 -22 -7 -67 -21 -100 -31 -436 -129 -747 -311 -1090
-639 -85 -81 -335 -387 -335 -410 0 -2 -13 -23 -29 -47 -91 -137 -180 -324
-236 -497 -73 -224 -114 -383 -130 -504 -4 -27 -9 -47 -11 -44 -3 2 -5 290 -4
639 0 554 -2 637 -15 648 -18 15 -185 6 -295 -16 -432 -89 -787 -325 -1034
-687 -25 -38 -46 -70 -46 -72 0 -2 -13 -26 -28 -52 -46 -79 -110 -241 -135
-338 -44 -172 -49 -216 -49 -409 0 -195 5 -237 49 -411 27 -107 97 -278 156
-380 65 -112 199 -278 303 -375 169 -158 420 -297 654 -363 168 -47 413 -73
431 -46 5 8 9 301 10 654 1 422 5 625 11 595 5 -25 16 -79 24 -120 29 -137 44
-191 109 -391 113 -347 321 -674 620 -974 171 -172 431 -354 670 -469 143 -68
136 -66 330 -130 258 -85 509 -130 695 -124 l105 3 5 1072 c3 589 8 1074 12
1078 3 4 9 -15 12 -42 10 -81 38 -236 51 -283 7 -25 21 -74 30 -110 19 -69 49
-163 64 -202 5 -12 17 -43 26 -68 40 -104 166 -364 202 -416 12 -19 23 -37 23
-40 0 -10 96 -153 169 -249 170 -227 343 -404 583 -596 38 -30 246 -172 268
-182 8 -4 38 -21 65 -37 111 -67 459 -230 492 -230 7 0 27 -6 45 -14 51 -21
204 -66 308 -90 400 -92 799 -102 1230 -30 515 85 1069 347 1464 692 192 168
442 456 578 667 81 126 228 408 228 438 0 9 4 18 10 22 5 3 14 20 19 38 5 18
19 57 31 87 12 30 25 69 30 85 5 17 13 44 18 60 83 248 132 575 132 881 0 314
-38 565 -138 899 -20 67 -60 177 -88 240 -86 195 -99 224 -151 315 -24 41 -47
82 -52 90 -142 228 -268 388 -461 580 -97 97 -166 159 -279 249 -46 38 -257
183 -281 194 -8 4 -31 17 -50 28 -162 99 -459 230 -640 282 -171 50 -241 66
-385 91 -267 47 -614 59 -850 30z"/>
</g>
</svg>
